Simulation
nRows=35
nColumns=15
endheader
time  TH_x TH_y TH_z SC_y  SC_z  SC_x  AC_y  AC_z  AC_x  GH_y  GH_z  GH_yy  EL_x  PS_y
2.4010000000000002  0.000000  0.000000  0.000000  -37.509720225811755  12.987505712764237  2.6852915677524183  47.8662364913963  10.920364131008203  4.003430102665563  6.030938506440947  18.606477795326306  12.161525514404612  11.267976793518125  120.000000
2.4490200000000004  0.000000  0.000000  0.000000  -35.91625102101242  12.269753051549879  1.8992639913643419  47.922443217114065  10.423624913311249  3.521566839212463  6.997999621380528  14.969923672258927  15.43094129917453  11.574415071644568  120.000000
2.49704  0.000000  0.000000  0.000000  -34.34580957979294  11.550030196691704  1.2090468477279677  48.083874351758425  10.013588604629868  3.1617448822865235  7.187242706106512  11.740758873168764  19.634003851802913  12.120562878393963  120.000000
2.5450600000000003  0.000000  0.000000  0.000000  -32.877291563071175  10.850816363783562  0.6492505663670287  48.36362223340574  9.710915347565402  2.923184607905433  6.459496109802279  8.934668527428416  24.702851257408653  12.918242919001965  120.000000
2.5930800000000005  0.000000  0.000000  0.000000  -31.59035441077087  10.195283119302191  0.24863225652569393  48.76055279008427  9.52816394248449  2.7924878554163164  4.9444049947166695  6.537444725036133  30.301295995943818  13.904696711663245  120.000000
2.6411000000000002  0.000000  0.000000  0.000000  -30.557668508073732  9.607590064514072  0.022880976901016984  49.25572691710085  9.469347872529394  2.7470386742566832  3.344834401854603  4.506246949115871  35.54399667830107  14.97408134102549  120.000000
2.6891200000000004  0.000000  0.000000  0.000000  -29.83191623822851  9.109969528549234  -0.03181664148023691  49.81343827521429  9.529371962120653  2.760778146584738  3.7770963881061204  2.7814997342015046  38.18133862703635  16.013740279719265  120.000000
2.7371400000000006  0.000000  0.000000  0.000000  -29.430618992801904  8.716390630006707  0.06383685825071443  50.38644103885056  9.691100818603687  2.8099207049371366  14.984675468229133  1.3447381833282381  29.406729389329943  16.930405162521563  120.000000
2.7851600000000003  0.000000  0.000000  0.000000  -29.32551129225333  8.431611659592786  0.2766631217836319  50.93205072579688  9.927243048862941  2.875001499736007  86.37204136054822  0.7278810549525632  -40.1694488896367  17.66351067113736  120.000000
2.8331800000000005  0.000000  0.000000  0.000000  -29.449085010125568  8.249540868134256  0.567795385713913  51.41928312872685  10.204673032981178  2.9440276763551556  128.2114286173407  1.5963820996495341  -80.74025578711553  18.18284696238218  120.000000
2.8812000000000006  0.000000  0.000000  0.000000  -29.71436970670502  8.156595711758065  0.8980598194293979  51.83174341211988  10.490039748876054  3.0123499541139513  134.0289252152095  2.5843781331452247  -85.71672410565294  18.48084547873807  120.000000
2.9292200000000004  0.000000  0.000000  0.000000  -30.03626023456158  8.133948229882142  1.2303544636790977  52.16391968007978  10.755312036513292  3.0795318687345734  133.7954038589849  3.4305970998568465  -84.94749145932754  18.568149610601672  120.000000
2.9772400000000006  0.000000  0.000000  0.000000  -30.348639071858305  8.161835750906913  1.5246484426007365  52.41352182277329  10.984803544026974  3.1501911539380107  131.5650923247265  4.10098391563328  -82.3789621731706  18.474192893820636  120.000000
3.0252600000000003  0.000000  0.000000  0.000000  -30.608376056010556  8.22144647379241  1.7398225669263556  52.578915968088786  11.17326055895404  3.2286712788315772  128.16299670793674  4.599323769187922  -78.75295517300256  18.246232850799288  120.000000
3.0732800000000005  0.000000  0.000000  0.000000  -30.78679956089163  8.292070455380749  1.844747113417699  52.66584920567206  11.309972962670814  3.3162818816945507  123.71966221493186  4.962814519846195  -74.14209761731799  17.946580999215765  120.000000
3.1213000000000006  0.000000  0.000000  0.000000  -30.85673241715243  8.352474754047796  1.8181468504004727  52.69109177470343  11.375578329601998  3.4141226461567618  118.24315198133594  5.262308686296525  -68.51703442712169  17.642150201816364  120.000000
3.1693200000000004  0.000000  0.000000  0.000000  -30.79933392740447  8.385399191683781  1.6458232171916007  52.66765688707414  11.35917014724697  3.514139213173553  111.8655923542906  5.569121691680133  -61.992166635486036  17.378440448552595  120.000000
3.2173400000000005  0.000000  0.000000  0.000000  -30.6158903442549  8.383810265697162  1.3225057826751485  52.59080921153011  11.265591445675934  3.601160610007732  104.8497023361462  5.922389651922623  -54.828680609079434  17.156881126033994  120.000000
3.2653600000000003  0.000000  0.000000  0.000000  -30.326070476910324  8.346315667137347  0.8535044364415435  52.44152846470879  11.113704731724814  3.6616912711444956  97.40912489677913  6.330912220610831  -47.252387972250816  16.935699422260843  120.000000
3.3133800000000004  0.000000  0.000000  0.000000  -29.95782394492176  8.271545348140995  0.25331835064829394  52.20397447145938  10.932397667918067  3.6884360731254966  89.60644901901217  6.802101343844585  -39.35008782234699  16.650945454471014  120.000000
3.3614000000000006  0.000000  0.000000  0.000000  -29.536547918920107  8.154415417731506  -0.45852092044262505  51.87945327534712  10.753983535968041  3.6831045140356116  81.47844263535573  7.370030051762435  -31.191222652686157  16.24669488589326  120.000000
3.4094200000000003  0.000000  0.000000  0.000000  -29.084614699702225  7.98527919806304  -1.2588991440580586  51.48688117244925  10.610961736783143  3.6527439610197496  73.17987027483959  8.096415877259734  -22.969649393319344  15.699992307752675  120.000000
3.4574400000000005  0.000000  0.000000  0.000000  -28.623549520237308  7.756089765261846  -2.12048164863354  51.05466941114691  10.533814059446236  3.605539291468979  64.99550659873731  9.051206008959731  -15.012322381763669  15.03078691591747  120.000000
3.5054600000000007  0.000000  0.000000  0.000000  -28.176845527399866  7.463382264697592  -3.013007400033498  50.61449713181165  10.548068068703182  3.5493402668614618  57.253042110507266  10.296030611585808  -7.687378338666714  14.29557263681151  120.000000
3.5534800000000004  0.000000  0.000000  0.000000  -27.771297072336377  7.110542564717363  -3.9055972670878347  50.19736768520552  10.671583662544622  3.492719973302343  50.2187926241654  11.874315740038337  -1.2968288854842822  13.567886603813509  120.000000
3.6015000000000006  0.000000  0.000000  0.000000  -27.44024988315147  6.710582423450551  -4.768787643063191  49.83115507019949  10.916166398262819  3.445214371001101  44.03707062675884  13.808261684947013  3.9853715778740364  12.915408258529432  120.000000
3.6495200000000008  0.000000  0.000000  0.000000  -27.222895513570524  6.2866057396845605  -5.5750200863380295  49.53684422407914  11.289825391119866  3.4202919026365786  38.740228604391675  16.098085980408047  8.103310578319062  12.3812597956201  120.000000
3.6975400000000005  0.000000  0.000000  0.000000  -27.155163684848535  5.867195454321789  -6.297785104656671  49.32769198232192  11.799898055060925  3.437148173293894  34.29374551607847  18.718934564053153  11.074450963268161  11.978479091512472  120.000000
3.7455600000000007  0.000000  0.000000  0.000000  -27.25072129399355  5.482022384849359  -6.911279367872464  49.2167741393655  12.4575303745078  3.5118863236665225  30.62406033493879  21.615587338454244  12.962178001792983  11.696122223340742  120.000000
3.7935800000000004  0.000000  0.000000  0.000000  -27.497886139508655  5.154606570520243  -7.385424812964383  49.203487444892396  13.273308973793723  3.6612276837555857  27.606870459520284  24.69699820330196  13.88835350873592  11.509215861066924  120.000000
3.8416000000000006  0.000000  0.000000  0.000000  -27.8603082693387  4.906435010704367  -7.68803870449364  49.27393208245792  14.252919541597354  3.9037537497866595  25.08888039502411  27.851195306554466  14.016033928551625  11.388360406475334  120.000000
3.8896200000000007  0.000000  0.000000  0.000000  -28.28310164706656  4.765130980833126  -7.793878686051361  49.42111689764059  15.390236306839979  4.24306064717337  22.93710918347957  30.97378185947796  13.50763930867425  11.305223623114392  120.000000
3.9376400000000005  0.000000  0.000000  0.000000  -28.71819649723886  4.748271447770963  -7.684931710538943  49.62985056603822  16.652538019959223  4.676544637342497  21.040416951471432  33.97830178544467  12.52840958791348  11.23469726598523  120.000000
3.9856600000000006  0.000000  0.000000  0.000000  -29.134291929610832  4.8561833811228645  -7.354784266545608  49.87515834305959  17.9809113265219  5.206976047180178  19.313650027223172  36.8002499005629  11.241663495574578  11.156090767644521  120.000000
4.03368  0.000000  0.000000  0.000000  -29.516785068913716  5.082498853345602  -6.810678467063912  50.139024250926504  19.304709891740583  5.833647583636437  17.70658595773231  39.40323958733019  9.794293722748254  11.05683998871862  120.000000
